<?xml version="1.0" encoding="UTF-8" standalone="no"?><!DOCTYPE svg PUBLIC "-//W3C//DTD SVG 1.1//EN" "http://www.w3.org/Graphics/SVG/1.1/DTD/svg11.dtd"><svg width="100%" height="100%" viewBox="0 0 1000 1000" version="1.1" xmlns="http://www.w3.org/2000/svg" xmlns:xlink="http://www.w3.org/1999/xlink" xml:space="preserve" xmlns:serif="http://www.serif.com/" style="fill-rule:evenodd;clip-rule:evenodd;stroke-linejoin:round;stroke-miterlimit:1.41421;"><rect id="Laptop_1" x="0" y="0" width="1000" height="1000" style="fill:none;"/><rect x="0" y="0" width="1000" height="1000" style="fill:#000026;"/><circle cx="641.745" cy="628.255" r="176.255" style="fill:#f0f;fill-opacity:0.14902;"/><circle cx="301.375" cy="376.003" r="101.375" style="fill:#0ff;fill-opacity:0.14902;"/><path d="M216,685.878l0,-369c0,0 62.45,0 85,0c2.122,0 4.157,0.843 5.657,2.343c1.5,1.5 2.343,3.535 2.343,5.657c0,0 0,0 0,0c0,2.122 -0.843,4.156 -2.343,5.657c-1.5,1.5 -3.535,2.343 -5.657,2.343c-19.707,0 -69,0 -69,0l0,353l201,0l0,0l134,0l0,0l201,0l0,-353c0,0 -49.293,0 -69,0c-2.122,0 -4.157,-0.843 -5.657,-2.343c-1.5,-1.501 -2.343,-3.535 -2.343,-5.657c0,0 0,0 0,0c0,-2.122 0.843,-4.157 2.343,-5.657c1.5,-1.5 3.535,-2.343 5.657,-2.343c22.55,0 85,0 85,0l0,369l34,0c0,4.337 0,8.675 0,13.012c-0.074,24.484 -16.645,48.352 -40.114,56.597c-6.261,2.199 -12.869,3.327 -19.513,3.39c-172.248,0.521 -344.498,0.521 -516.746,0c-25.006,-0.236 -48.823,-17.198 -56.704,-41.499c-1.932,-5.96 -2.904,-12.205 -2.923,-18.488l0,-13.012l34,0Zm0,16l-17.898,0c1.556,21.709 20.552,40.781 43.625,40.999c172.181,0.521 344.365,0.521 516.546,0c21.567,-0.204 41.824,-17.613 43.605,-40.731l0.02,-0.268l-17.898,0l-217,0l0,5.588c-0.065,9.555 -8.271,18.22 -18.2,18.41c-32.462,0.222 -64.926,0.002 -97.388,0.002c-9.65,-0.066 -18.357,-8.427 -18.412,-18.418l0,-5.582l-217,0Zm335,0l-102,0c0,3.345 -0.704,7.94 2.408,8c32.417,0.221 64.852,1.023 97.253,-0.002c1.241,-0.055 2.315,-1.153 2.339,-2.406l0,-5.592Zm-99,-126.2l0,-33.8c0.039,-1.518 0.195,-1.975 0.514,-2.822c1.065,-2.824 3.826,-4.919 6.869,-5.154c0.795,-0.062 0.981,-0.013 1.234,0c1.334,0.138 1.697,0.281 2.397,0.565c2.669,1.086 4.646,3.706 4.944,6.588c0.037,0.365 0.033,0.457 0.042,0.823l0,33.879c10.274,3.179 18.759,12.147 20.498,23.057c2.033,12.75 -5.603,26.383 -17.588,31.284c-12.729,5.207 -28.86,-0.223 -35.85,-12.2c-6.069,-10.4 -4.675,-24.615 3.35,-33.664c3.612,-4.072 8.361,-7.035 13.59,-8.556Zm80,0.001l0,-33.801c0.034,-1.34 0.149,-1.713 0.379,-2.433c0.96,-3.007 3.834,-5.298 7.004,-5.543c0.795,-0.062 0.981,-0.013 1.234,0c1.511,0.156 1.955,0.347 2.774,0.73c2.487,1.164 4.283,3.677 4.567,6.423c0.037,0.365 0.033,0.457 0.042,0.823l0,33.878c10.108,3.122 18.498,11.841 20.408,22.524c2.303,12.881 -5.372,26.863 -17.501,31.82c-12.727,5.201 -28.857,-0.225 -35.847,-12.202c-6.062,-10.387 -4.684,-24.611 3.352,-33.666c3.613,-4.071 8.361,-7.033 13.588,-8.553Zm-72.085,14.841c-5.136,0.049 -10.059,3.438 -11.913,8.222c-2.964,7.65 3.356,17.495 11.998,17.495c5.818,0 11.361,-4.422 12.581,-10.186c1.551,-7.324 -4.327,-15.405 -12.412,-15.531c-0.085,0 -0.169,-0.001 -0.254,0Zm80,0c-5.147,0.05 -10.065,3.453 -11.913,8.222c-2.945,7.601 3.249,17.386 11.829,17.493c5.91,0.074 11.569,-4.418 12.766,-10.262c1.477,-7.205 -4.199,-15.12 -12.095,-15.444c-0.196,-0.007 -0.391,-0.01 -0.587,-0.009Zm73.032,-29.544l-31.822,-31.822l0,-23.314c0,0 0.3,-3.512 2.202,-5.512c1.304,-1.372 3.106,-2.256 4.989,-2.447c0.781,-0.079 0.964,-0.037 1.214,-0.031c1.315,0.1 1.676,0.23 2.373,0.488c2.783,1.03 4.878,3.718 5.181,6.693c0.036,0.358 0.032,0.449 0.041,0.809l0,16.686l27.042,27.042c4.336,-2.414 9.289,-3.742 14.285,-3.727c13.375,0.129 25.941,10.521 28.253,23.937c2.218,12.869 -5.513,26.815 -17.694,31.708c-12.719,5.109 -28.837,-0.346 -35.775,-12.424c-4.871,-8.478 -4.816,-19.449 -0.289,-28.086Zm-237.242,-11.28l27.17,-27.17l0,-16.686c0,0 0.34,-3.757 2.488,-5.798c1.275,-1.212 2.957,-1.983 4.703,-2.161c0.781,-0.079 0.965,-0.037 1.214,-0.031c1.49,0.114 1.932,0.287 2.75,0.638c2.607,1.119 4.515,3.697 4.804,6.543c0.037,0.358 0.032,0.449 0.041,0.809l0,23.314l-31.867,31.866c1.617,2.856 2.746,5.991 3.252,9.293c1.95,12.742 -5.784,26.354 -17.781,31.173c-12.769,5.129 -28.956,-0.4 -35.86,-12.571c-5.892,-10.387 -4.42,-24.409 3.527,-33.363c5.432,-6.12 13.543,-9.735 21.773,-9.711c4.865,0.047 9.606,1.45 13.786,3.855Zm262.477,12.144c-5.221,0.051 -10.205,3.562 -11.997,8.445c-2.79,7.604 3.463,17.159 11.917,17.271c5.803,0.077 11.368,-4.228 12.695,-9.954c1.69,-7.293 -4.038,-15.48 -12.112,-15.755c-0.168,-0.005 -0.335,-0.007 -0.503,-0.007Zm-276.533,0c-5.075,0.049 -9.96,3.368 -11.857,8.081c-3.061,7.604 3.145,17.521 11.777,17.635c5.852,0.078 11.469,-4.336 12.729,-10.108c1.583,-7.243 -4.206,-15.269 -12.063,-15.598c-0.195,-0.007 -0.39,-0.01 -0.586,-0.01Zm137.154,-346.019c7.143,-11.628 19.888,-19.918 33.481,-20.316c18.853,-0.551 36.309,13.539 40.39,31.287c0.84,3.651 0.768,1.982 0.768,1.982c1.848,-0.207 3.706,-0.326 5.568,-0.355c0.413,-0.004 0.826,-0.004 1.24,-0.001c26.667,0.345 49.19,21.881 52.781,46.88c0.84,5.846 0.228,12.659 0.228,12.659c12.124,9.231 21.203,22.694 24.813,37.539c4.311,17.728 0.888,36.927 -8.771,52.259c-4.226,6.709 -9.772,12.504 -16.059,17.459l0.056,0.583c0.963,10.92 -1.387,22.196 -6.84,31.75c-8.814,15.443 -25.75,25.621 -43.432,26.962c-4.848,0.368 -9.971,-0.096 -9.971,-0.096c-3.628,19.098 -21.424,32.581 -40.062,32.958c-13.019,0.263 -24.499,-6.305 -31.806,-15.996c-7.033,11.571 -19.648,19.789 -34.18,19.495c-18.638,-0.377 -36.434,-13.859 -40.062,-32.957c0,0 -5.123,0.463 -9.971,0.095c-17.682,-1.341 -34.618,-11.519 -43.432,-26.962c-5.453,-9.553 -7.803,-20.829 -6.84,-31.75l0.056,-0.582c-6.287,-4.955 -11.833,-10.751 -16.059,-17.459c-9.659,-15.333 -13.082,-34.531 -8.771,-52.26c3.61,-14.845 12.689,-28.307 24.813,-37.539c0,0 -0.612,-6.813 0.228,-12.658c3.591,-25 26.114,-46.535 52.781,-46.881c0.414,-0.003 0.827,-0.002 1.24,0.002c1.862,0.029 3.72,0.147 5.568,0.354c0,0 -0.072,1.67 0.768,-1.982c4.081,-17.748 21.537,-31.837 40.39,-31.286c12.186,0.356 23.69,7.056 31.087,16.816Zm-6.675,235.385c0.374,-18.953 0.131,-172.083 0.025,-205.354c-0.015,-4.71 0.228,-9.409 -1.246,-13.877c-3.322,-10.07 -13.102,-17.776 -23.883,-17.99c-0.241,-0.003 -0.24,-0.002 -0.482,-0.002c-14.484,0.181 -27.902,14.538 -24.72,29.482c0.974,4.571 4.019,8.414 7.575,11.331l1.1,1.091c2.496,3.744 2.6,10.016 -2.624,12.048c-4.613,1.794 -9.466,-2.203 -13.233,-6.744c-3.289,-3.964 -5.747,-8.618 -7.113,-13.578c-17.585,-4.261 -39.041,8.462 -44.483,27.211c-2.771,9.548 -2.271,20.077 4.337,29.026c3.316,4.491 8.114,7.986 13.756,9.023c5.028,1.32 5.561,3.981 5.812,6.248c0.525,4.754 -3.944,9.342 -9.335,8.346c-1.609,-0.333 -1.851,-0.416 -2.704,-0.664c-9.899,-2.882 -18.118,-10.542 -23.13,-19.754l-0.093,-0.174c-8.804,8.214 -14.817,19.497 -16.24,31.492c-1.941,16.36 4.239,33.404 16.231,44.834c5.341,-10.046 14.723,-18.212 26.027,-20.494c2.359,-0.452 2.79,-0.302 4.102,0.145c5.852,1.992 6.702,12.579 -1.141,14.543c-9.403,2.171 -15.907,10.73 -18.537,19.684c0,0 -0.734,3.881 -0.66,7.674c0.369,18.949 16.029,36.707 35.589,38.337c3.365,0.281 6.762,0.127 10.087,-0.461c1.792,-7.92 6.352,-15.081 12.74,-20.268c2.719,-2.208 6.903,-2.898 9.87,-0.331c3.711,3.209 2.642,9.116 -1.511,12.911c-3.803,3.514 -6.401,8.314 -6.866,13.474c-0.398,4.426 1.471,14.222 7.75,20.323c5.49,5.336 13.36,8.359 21.081,7.101c11.673,-1.901 21.601,-12.484 21.919,-24.633Zm15.719,-208.853c-0.106,33.233 -0.336,187.062 0.025,205.354c0.318,12.149 10.246,22.731 21.919,24.633c7.721,1.257 15.591,-1.766 21.081,-7.101c6.279,-6.102 8.148,-15.897 7.75,-20.323c-0.465,-5.161 -3.063,-9.961 -6.866,-13.474c-4.153,-3.796 -5.222,-9.702 -1.511,-12.912c2.967,-2.566 7.151,-1.876 9.87,0.332c6.388,5.187 10.948,12.347 12.74,20.267c3.325,0.588 6.722,0.742 10.087,0.462c19.56,-1.63 35.22,-19.388 35.589,-38.337c0.074,-3.794 -0.66,-7.674 -0.66,-7.674c-2.63,-8.954 -9.134,-17.514 -18.537,-19.685c-7.843,-1.963 -6.993,-12.55 -1.141,-14.542c1.312,-0.447 1.743,-0.597 4.102,-0.146c11.304,2.283 20.686,10.448 26.027,20.494c11.992,-11.429 18.172,-28.473 16.231,-44.834c-1.423,-11.994 -7.436,-23.277 -16.24,-31.491l-0.093,0.173c-5.012,9.212 -13.231,16.873 -23.13,19.754c-0.853,0.249 -1.095,0.332 -2.704,0.664c-5.391,0.997 -9.86,-3.591 -9.335,-8.345c0.251,-2.267 0.784,-4.929 5.812,-6.249c5.642,-1.036 10.44,-4.532 13.756,-9.022c6.608,-8.95 7.108,-19.478 4.337,-29.026c-5.442,-18.749 -26.898,-31.472 -44.483,-27.211c-1.366,4.96 -3.824,9.614 -7.113,13.578c-3.767,4.54 -8.62,8.538 -13.233,6.744c-5.224,-2.032 -5.12,-8.304 -2.624,-12.048l1.1,-1.091c3.556,-2.917 6.601,-6.76 7.575,-11.332c3.182,-14.943 -10.236,-29.3 -24.72,-29.481c-0.242,0 -0.241,-0.001 -0.482,0.002c-10.781,0.213 -20.561,7.92 -23.883,17.99c-1.474,4.467 -1.231,9.167 -1.246,13.877Zm-62.695,131.073c3.732,0.181 6.466,3.408 7.424,7.411c2.221,9.022 11.232,15.323 20.087,17.726c0,0 6.868,3.336 5.472,8.93c-1.042,4.179 -5.759,6.614 -10.48,5.237c-0.762,-0.222 -1.518,-0.462 -2.268,-0.719c-12.444,-4.274 -23.608,-13.524 -27.167,-26.782c-1.296,-4.826 -0.268,-11.074 5.891,-11.757c0.301,-0.034 0.334,-0.058 1.041,-0.046Zm109.696,-3.5c-3.732,0.182 -6.466,3.408 -7.424,7.412c-2.221,9.022 -11.232,15.323 -20.087,17.726c0,0 -6.868,3.336 -5.472,8.929c1.042,4.18 5.759,6.615 10.48,5.238c0.762,-0.222 1.518,-0.462 2.268,-0.72c12.444,-4.273 23.608,-13.523 27.167,-26.781c1.296,-4.827 0.268,-11.074 -5.891,-11.758c-0.301,-0.033 -0.334,-0.057 -1.041,-0.046Zm-116.294,-36.433c6.211,0.131 12.808,2.034 16.727,6.799c3.772,4.587 0.09,13.929 -7.11,12.29c-2.717,-0.619 -4.518,-3.183 -7.363,-3.871c-3.622,-0.875 -7.424,0.103 -10.867,1.435c0,0 -7.594,1.414 -9.603,-4.316c-1.522,-4.342 1.39,-8.853 6.595,-10.518c3.593,-1.149 7.352,-1.795 11.12,-1.822c0.25,0 0.25,0 0.501,0.003Zm122.892,-3.499c-6.211,0.131 -12.808,2.034 -16.727,6.799c-3.772,4.587 -0.09,13.929 7.11,12.29c2.717,-0.619 4.518,-3.183 7.363,-3.871c3.622,-0.876 7.424,0.103 10.867,1.435c0,0 7.594,1.414 9.603,-4.317c1.522,-4.341 -1.39,-8.852 -6.595,-10.517c-3.593,-1.15 -7.352,-1.795 -11.12,-1.822c-0.25,0 -0.25,0 -0.501,0.003Zm-116.082,-52.212c3.458,0.307 6.755,1.816 9.986,3.307c11.438,5.275 21.612,15.55 22.926,27.975c0.643,6.08 -7.749,11.941 -12.847,6.26c-1.504,-1.676 -1.89,-4.049 -2.521,-6.21c-2.659,-8.91 -11.818,-14.367 -19.679,-16.544c0,0 -4.333,-1.774 -5.44,-5.094c-1.448,-4.345 2.254,-9.564 7.167,-9.706c0.136,0.004 0.272,0.008 0.408,0.012Zm109.272,-3.499c-3.458,0.307 -6.755,1.816 -9.986,3.306c-11.438,5.276 -21.612,15.551 -22.926,27.976c-0.643,6.08 7.749,11.94 12.847,6.26c1.504,-1.676 1.89,-4.049 2.521,-6.211c2.659,-8.91 11.818,-14.367 19.679,-16.544c0,0 4.333,-1.774 5.44,-5.094c1.448,-4.344 -2.254,-9.563 -7.167,-9.705c-0.136,0.004 -0.272,0.008 -0.408,0.012Z" style="fill:url(#_Linear1);"/><defs><linearGradient id="_Linear1" x1="0" y1="0" x2="1" y2="0" gradientUnits="userSpaceOnUse" gradientTransform="matrix(636,0,0,563.778,182,477.379)"><stop offset="0" style="stop-color:#0ff;stop-opacity:1"/><stop offset="1" style="stop-color:#f0f;stop-opacity:1"/></linearGradient></defs></svg>