<svg width="32" height="32" xmlns="http://www.w3.org/2000/svg">

 <g>
  <title>background</title>
  <rect fill="none" id="canvas_background" height="402" width="582" y="-1" x="-1"/>
 </g>
 <g>
  <title>Layer 1</title>
  <path fill="#04fbff" id="svg_1" d="m22.211,0.517c-0.031,0.025 -0.906,0.931 -1.938,2.019l-1.875,1.975l-0.75,2.925l-2.094,0.037c-3.894,0.081 -6.194,0.394 -6.619,0.9c-0.081,0.094 -0.069,0.125 0.075,0.25c1.019,0.875 9.062,1.131 12.781,0.412c1.319,-0.256 1.656,-0.575 0.938,-0.881c-0.544,-0.237 -2.538,-0.563 -3.431,-0.563c-0.244,0 -0.3,-0.019 -0.3,-0.112c0,-0.056 0.137,-0.631 0.3,-1.269l0.294,-1.162l1.75,-1.85c0.963,-1.019 1.756,-1.9 1.769,-1.95c0.063,-0.281 -0.681,-0.881 -0.9,-0.731zm-13.213,8.663c0,0.188 0.756,7.3 0.794,7.412c0.012,0.05 0.075,-0.044 0.137,-0.225c0.556,-1.556 1.662,-2.875 2.6,-3.094c0.456,-0.106 0.8,0.006 1.169,0.375c0.406,0.406 0.481,0.844 0.169,1.012c-0.156,0.081 -0.306,-0.031 -0.506,-0.394c-0.431,-0.769 -1.231,-0.363 -2.094,1.075c-0.912,1.512 -1.15,3.188 -0.456,3.188c0.256,0 0.875,-0.488 1.306,-1.025c0.294,-0.375 0.406,-0.581 0.569,-1.063c0.106,-0.325 0.231,-0.625 0.281,-0.662s0.162,-0.063 0.262,-0.05c0.162,0.019 0.175,0.044 0.194,0.313c0.012,0.206 -0.037,0.456 -0.175,0.844c-0.181,0.512 -0.387,1.169 -0.775,2.456c-0.087,0.294 -0.2,0.594 -0.256,0.669c-0.137,0.194 -0.331,0.181 -0.419,-0.019c-0.063,-0.131 -0.044,-0.269 0.131,-0.856c0.113,-0.387 0.225,-0.756 0.244,-0.825c0.019,-0.081 -0.125,0.025 -0.394,0.275c-0.625,0.581 -1.238,0.825 -1.6,0.631c-0.106,-0.056 -0.119,-0.044 -0.119,0.106c0,0.475 0.45,4.738 0.506,4.806c0.188,0.225 1.519,0.606 2.869,0.819c1.031,0.162 3.969,0.162 5,0c0.887,-0.144 1.856,-0.369 2.325,-0.544c0.662,-0.244 0.581,0.025 0.956,-3.219c0.181,-1.581 0.325,-2.887 0.313,-2.894c-0.012,-0.012 -0.213,0.137 -0.444,0.331c-0.5,0.425 -0.831,0.588 -1.2,0.594c-0.331,0 -0.5,-0.081 -0.575,-0.287c-0.088,-0.219 0.031,-0.475 0.506,-1.063c0.531,-0.656 0.619,-0.781 0.619,-0.913c0,-0.281 -0.644,0.012 -1.012,0.463c-0.119,0.15 -0.294,0.394 -0.387,0.544c-0.212,0.331 -0.762,1.587 -1.037,2.369c-0.213,0.606 -0.412,0.887 -0.619,0.887c-0.119,0 -0.319,-0.15 -0.319,-0.238c0,-0.163 0.2,-0.669 0.569,-1.475c0.238,-0.512 0.431,-0.944 0.431,-0.956s-0.119,0.069 -0.269,0.188c-0.356,0.294 -0.75,0.481 -0.994,0.481c-0.238,0 -0.488,-0.15 -0.488,-0.287c0,-0.113 0.012,-0.119 -0.381,0.1c-0.594,0.325 -0.931,0.206 -0.931,-0.338l0,-0.25l-0.256,0.269c-0.469,0.481 -1.106,0.65 -1.456,0.375c-0.225,-0.175 -0.219,-0.588 0.019,-1.3c0.431,-1.275 0.762,-1.775 1.056,-1.587c0.181,0.113 0.15,0.294 -0.137,0.887c-0.494,1.019 -0.525,1.5 -0.087,1.375c0.419,-0.119 0.919,-0.775 1.269,-1.65c0.094,-0.244 0.212,-0.488 0.269,-0.55c0.137,-0.156 0.344,-0.113 0.413,0.087c0.044,0.131 0,0.306 -0.244,0.906c-0.2,0.488 -0.306,0.838 -0.306,1.025c-0.006,0.269 0,0.281 0.175,0.269c0.225,-0.019 0.587,-0.256 0.637,-0.425c0.194,-0.631 1.637,-4.156 1.75,-4.281c0.125,-0.125 0.175,-0.144 0.319,-0.088c0.106,0.037 0.181,0.113 0.194,0.194c0.012,0.075 -0.106,0.425 -0.262,0.781c-0.613,1.419 -1.412,3.469 -1.412,3.625c0,0.1 0.031,0.175 0.063,0.175c0.15,0 0.563,-0.262 1.012,-0.644c0.4,-0.35 0.494,-0.463 0.581,-0.744c0.238,-0.725 0.412,-0.931 0.669,-0.794c0.1,0.056 0.119,0.113 0.094,0.281c-0.019,0.119 -0.019,0.213 0,0.213s0.162,-0.113 0.313,-0.256c0.475,-0.431 0.881,-0.538 1.256,-0.306c0.175,0.106 0.2,0.156 0.2,0.394c0,0.325 -0.25,0.769 -0.775,1.387c-0.194,0.225 -0.35,0.438 -0.35,0.475c0,0.031 0.063,0.056 0.144,0.056c0.137,0 1.188,-0.806 1.419,-1.088c0.069,-0.087 0.213,-1.238 0.544,-4.281c0.244,-2.287 0.444,-4.169 0.431,-4.175c-0.006,-0.012 -0.169,0.037 -0.363,0.106c-0.488,0.169 -1.544,0.35 -2.813,0.481c-1.375,0.137 -6.031,0.156 -7.394,0.031c-1.269,-0.119 -2.494,-0.313 -3.013,-0.481l-0.456,-0.144l0,0.137l-0.003,0.004zm1.878,15.502c0,0.012 0.2,0.363 0.438,0.775l0.444,0.756l0.181,2.512l0.188,2.519l0.188,0.162c0.469,0.4 1.594,0.625 3.344,0.663c1.988,0.044 3.537,-0.206 4.044,-0.663l0.2,-0.175l0.144,-2.537l0.144,-2.531l0.406,-0.713c0.225,-0.387 0.406,-0.725 0.406,-0.75c0,-0.019 -0.188,0.025 -0.425,0.106c-0.844,0.287 -2.488,0.544 -3.95,0.625c-1.625,0.088 -4.144,-0.219 -5.419,-0.662c-0.181,-0.063 -0.331,-0.1 -0.331,-0.088l-0.002,0.001z"/>
 </g>
</svg>