<svg width="34" height="32" xmlns="http://www.w3.org/2000/svg">

 <g>
  <title>background</title>
  <rect fill="none" id="canvas_background" height="402" width="582" y="-1" x="-1"/>
 </g>
 <g>
  <title>Layer 1</title>
  <path fill="#04fbff" id="svg_1" d="m3.556,2.845l0,27.071l27.53,0l0,-27.071l-27.53,0zm25.34,24.918l-23.151,0l0,-22.765l23.151,0l0,22.765z"/>
  <path fill="#04fbff" id="svg_2" d="m16.555,10.442c-0.693,-0.599 -1.726,-0.939 -3.173,-0.939c-1.433,0 -3.173,0.046 -3.173,0.046l0,11.103l2.326,0l0,-3.568s0.407,-0.005 0.847,-0.023c1.593,-0.067 2.526,-0.549 3.327,-1.364c0.616,-0.631 0.955,-1.53 0.955,-2.627s-0.447,-2.062 -1.109,-2.628zm-3.235,4.673c-0.375,0.004 -0.533,0.016 -0.786,-0.008l0,-3.834s0.493,-0.017 0.971,0c1.198,0.044 1.833,0.89 1.833,1.921c0,1.148 -0.77,1.906 -2.018,1.921zm8.885,0.34c-1.005,-0.356 -1.324,-0.559 -1.324,-0.949c0,-0.423 0.352,-0.677 0.972,-0.677c0.703,0 1.767,0.454 2.136,0.658l0,-1.871c-0.502,-0.254 -1.265,-0.566 -2.22,-0.566c-2.027,0 -3.334,1.169 -3.334,2.728c-0.017,0.965 0.636,1.655 2.329,2.231c0.955,0.322 1.206,0.767 1.206,1.191s-0.318,0.695 -1.089,0.695c-0.754,0 -1.86,-0.431 -2.329,-0.718l0,1.847c0.62,0.338 1.518,0.659 2.329,0.684c2.363,0.074 3.551,-1.152 3.551,-2.694c-0.017,-1.22 -0.67,-2.016 -2.228,-2.558l0.001,-0.001z"/>
 </g>
</svg>