<svg width="496" height="496" xmlns="http://www.w3.org/2000/svg">

 <g>
  <title>background</title>
  <rect fill="none" id="canvas_background" height="402" width="582" y="-1" x="-1"/>
 </g>
 <g>
  <title>Layer 1</title>
  <path id="svg_1" fill="#04fbff" d="m162.78516,199.16797l66.67187,58.83203l-10.59375,12l-66.66406,-58.83203c-10.08594,-8.89453 -15.87891,-21.71094 -15.87891,-35.16797l16,0c0,8.86328 3.81641,17.3125 10.46485,23.16797zm-3.64063,-123.29688c0.16016,-0.39062 0.32031,-0.78125 0.48828,-1.16796l-12.1914,-20.53516l42.72656,-42.72656l20.53516,12.18359c0.39453,-0.16797 0.78515,-0.32812 1.16796,-0.48828l5.92188,-23.13672l60.42187,0l5.91407,23.14453c0.39062,0.16016 0.78125,0.32031 1.16797,0.48828l20.53515,-12.18359l42.72656,42.72656l-12.18359,20.53516c0.16797,0.39453 0.32813,0.78515 0.48828,1.16797l23.13672,5.91406l0,29.76562c3.15234,2.34375 6.19141,4.84766 9.01563,7.67969c14.92187,14.98438 23.08203,34.88281 22.98437,56.03516l-0.00781,1.05469c-0.09766,22.40625 -9.79297,43.8164 -26.59375,58.70312l-117.07031,103.64844l-117.30469,-103.51172c-16.96875,-14.97656 -26.70313,-36.53516 -26.70313,-59.16797l0,-1.08984c0,-25.78907 12.48828,-48.65235 31.67969,-63.0625l0,-30.05469l23.14453,-5.92188zm198.53516,54.65625c-11.89453,-11.95312 -27.73438,-18.52734 -44.58985,-18.52734c-14.16796,0 -28.08203,4.85547 -39.16015,13.67188l-25.875,20.5664l-25.27735,-20.33594c-11.13672,-8.96484 -25.14453,-13.90234 -39.44922,-13.90234c-34.78515,0 -63.00781,28.22266 -63.00781,62.91016l0,1.08984c0,18.03906 7.75781,35.23047 21.28906,47.16797l106.70313,94.15234l106.48047,-94.27343c13.39844,-11.86329 21.12891,-28.92579 21.19922,-46.81641l0.00781,-1.0625c0.07812,-16.82422 -6.43359,-32.6875 -18.32031,-44.64063zm-124.8711,-17.08593l15.3125,12.32031l15.73438,-12.52344c0.03125,-0.41406 0.14453,-0.82422 0.14453,-1.23828c0,-8.82422 -7.17578,-16 -16,-16s-16,7.17578 -16,16c0,0.3125 0.07812,0.60938 0.10547,0.92188c0.22265,0.17578 0.46875,0.33593 0.70312,0.51953zm61.13672,-15.05078c-5.9375,-20.02344 -24.46484,-34.39063 -45.94531,-34.39063c-21.44141,0 -39.96094,14.33594 -45.92187,34.32031c5.22656,1.28125 10.28906,3.10547 15.13671,5.39844c3.67969,-13.61328 16.01563,-23.71875 30.78516,-23.71875c14.83203,0 27.22266,10.19141 30.83203,23.90234c4.84766,-2.32812 9.89453,-4.19921 15.11328,-5.51171zm-116.25781,-24.59766l-1.83984,3.84766c-1.17578,2.48046 -2.23828,5.01562 -3.16016,7.625l-1.42969,4.03125l-19.25781,4.91015l0,8.26563c9.58594,-4.14453 20.14453,-6.47266 31.23047,-6.47266c0.94531,0 1.875,0.08984 2.81641,0.12109c7.13671,-27.89062 32.52734,-48.12109 61.95312,-48.12109c29.44922,0 54.82422,20.23047 61.96094,48.13672c1.03906,-0.03906 2.07812,-0.13672 3.1289,-0.13672c10.80469,0 21.26172,2.18359 30.91016,6.29688l0,-8.08204l-19.25781,-4.91015l-1.42969,-4.03125c-0.91406,-2.60938 -1.97656,-5.15235 -3.16016,-7.625l-1.83984,-3.84766l10.14453,-17.09765l-25.15234,-25.15235l-17.09766,10.14453l-3.84765,-1.83984c-2.48047,-1.17578 -5.01563,-2.23828 -7.625,-3.16016l-4.03125,-1.42968l-4.91016,-19.26563l-35.57813,0l-4.91015,19.25781l-4.03125,1.42969c-2.61719,0.91406 -5.15235,1.97656 -7.63281,3.15234l-3.84766,1.83985l-17.09766,-10.14453l-25.15234,25.15234l10.14453,17.10547zm318.3125,215.17578l0,1.88672c0,4.94531 -1.45703,9.73828 -4.19141,13.84766l-46.89843,70.35156c-10.41407,15.625 -27.83985,24.94531 -46.59766,24.94531l-46.3125,0c-4.41406,0 -8,3.58594 -8,8l0,24l16,0l0,64l-224,0l0,-64l16,0l0,-24c0,-4.41406 -3.58594,-8 -8,-8l-46.3125,0c-18.75781,0 -36.17578,-9.32031 -46.58984,-24.9375l-46.89844,-70.35156c-2.74219,-4.11719 -4.19922,-8.90235 -4.19922,-13.85547l0,-1.88672c0,-13.76953 11.19922,-24.96875 24.96875,-24.96875c6.57422,0 13.00781,2.66406 17.65625,7.3125l48.6875,48.6875l27.07031,0l-10.1914,-15.28906c-2.73438,-4.11719 -4.19141,-8.90235 -4.19141,-13.85547l0,-1.88672c0,-13.76953 11.19922,-24.96875 24.96875,-24.96875c6.57422,0 13.00781,2.66406 17.65625,7.3125l76.96875,76.96875c10.57422,10.57422 16.40625,24.64062 16.40625,39.59766l0,44.12109l16,0l0,-44.12109c0,-14.95704 5.83203,-29.02344 16.40625,-39.59766l76.96875,-76.96875c4.64844,-4.64844 11.08203,-7.3125 17.65625,-7.3125c13.76953,0 24.96875,11.19922 24.96875,24.96875l0,1.88672c0,4.94531 -1.45703,9.73828 -4.19141,13.84765l-10.1914,15.29688l27.07031,0l48.6875,-48.6875c4.64844,-4.64844 11.08203,-7.3125 17.65625,-7.3125c13.76953,0 24.96875,11.19922 24.96875,24.96875zm-328,119.03125l0,24l56,0l0,-44.12109c0,-10.6875 -4.16797,-20.73438 -11.71875,-28.28516l-76.96875,-76.96875c-1.67187,-1.67187 -3.98437,-2.625 -6.34375,-2.625c-4.94531,0 -8.96875,4.02344 -8.96875,8.96875l0,1.88672c0,1.77734 0.51953,3.50391 1.50391,4.97656l29.15234,43.72656l-13.3125,8.875l-8.28906,-12.43359l-44.36719,0l-53.375,-53.375c-1.67187,-1.67187 -3.98437,-2.625 -6.34375,-2.625c-4.94531,0 -8.96875,4.02344 -8.96875,8.96875l0,1.88672c0,1.77734 0.51953,3.50391 1.50391,4.97656l46.89453,70.35156c7.4414,11.16016 19.89062,17.81641 33.28906,17.81641l46.3125,0c13.23047,0 24,10.76953 24,24zm72,40l-88,0l0,32l88,0l0,-32zm104,0l-88,0l0,32l88,0l0,-32zm136,-159.03125c0,-4.94531 -4.02344,-8.96875 -8.96875,-8.96875c-2.35937,0 -4.67187,0.95313 -6.34375,2.625l-53.375,53.375l-44.36719,0l-8.28906,12.44141l-13.3125,-8.875l29.15234,-43.72657c0.98438,-1.48046 1.50391,-3.19921 1.50391,-4.97656l0,-1.88672c0,-4.95312 -4.02344,-8.97656 -8.96875,-8.97656c-2.35938,0 -4.67188,0.95313 -6.34375,2.625l-76.96875,76.96875c-7.55078,7.55859 -11.71875,17.59766 -11.71875,28.28516l0,44.12109l56,0l0,-24c0,-13.23047 10.76953,-24 24,-24l46.3125,0c13.39844,0 25.83984,-6.65625 33.28125,-17.81641l46.89453,-70.35156c0.98438,-1.48047 1.50391,-3.19922 1.50391,-4.97656l0,-1.88672l0.00781,0zm0,0"/>
 </g>
</svg>