<svg width="32" height="32" xmlns="http://www.w3.org/2000/svg">

 <g>
  <title>background</title>
  <rect fill="none" id="canvas_background" height="402" width="582" y="-1" x="-1"/>
 </g>
 <g>
  <title>Layer 1</title>
  <path fill="#04fbff" id="svg_1" d="m6.08,23.835l0,5.32l16.767,0l0,-10.673l-0.871,0.097l-0.903,0.097l-0.097,4.417l-0.097,4.45l-13.188,0l0,-9.028l-1.612,0l0,5.32l0.001,0zm2.901,0.806l0,0.967l10.319,0l0,-1.935l-10.318,0l0,0.967l-0.001,0.001zm0.155,-3.809l-0.105,0.962l10.257,1.118l0.21,-1.923l-10.257,-1.118l-0.105,0.962l0,-0.001zm0.771,-4.55l-0.251,0.934l9.965,2.676l0.502,-1.868l-9.965,-2.676l-0.251,0.934zm2.116,-5.304l-0.515,0.819l8.734,5.494l1.03,-1.638l-8.734,-5.494l-0.515,0.819zm4.941,-4.94l-0.797,0.549l5.853,8.498l1.593,-1.097l-5.853,-8.498l-0.797,0.549l0.001,-0.001zm6.448,-2.489l-0.951,0.177l1.893,10.143l1.902,-0.355l-1.892,-10.143l-0.951,0.177l-0.001,0.001z"/>
 </g>
</svg>